<svg xmlns="http://www.w3.org/2000/svg" viewBox="0 0 512 512">
  <defs>
    <linearGradient id="bg" x1="0%" y1="0%" x2="100%" y2="100%">
      <stop offset="0%" style="stop-color:#1e3a8a"/>
      <stop offset="50%" style="stop-color:#2563eb"/>
      <stop offset="100%" style="stop-color:#3b82f6"/>
    </linearGradient>
    <linearGradient id="shine" x1="0%" y1="0%" x2="0%" y2="100%">
      <stop offset="0%" style="stop-color:rgba(255,255,255,0.15)"/>
      <stop offset="50%" style="stop-color:rgba(255,255,255,0)"/>
    </linearGradient>
  </defs>
  
  <!-- Background -->
  <rect width="512" height="512" rx="108" fill="url(#bg)"/>
  
  <!-- Subtle shine overlay -->
  <rect width="512" height="256" rx="108" fill="url(#shine)"/>
  
  <!-- Dad figure (head) -->
  <circle cx="256" cy="145" r="52" fill="white" opacity="0.95"/>
  
  <!-- Dad figure (body) -->
  <path d="M 195 210 Q 195 195 210 190 L 256 185 L 302 190 Q 317 195 317 210 L 320 310 Q 320 320 310 320 L 202 320 Q 192 320 192 310 Z" fill="white" opacity="0.95"/>
  
  <!-- Arms holding scale -->
  <path d="M 192 230 L 140 270 L 155 275 L 195 245" fill="white" opacity="0.9"/>
  <path d="M 320 230 L 372 270 L 357 275 L 317 245" fill="white" opacity="0.9"/>
  
  <!-- Scale/weight bar -->
  <rect x="130" y="268" width="252" height="6" rx="3" fill="white" opacity="0.85"/>
  
  <!-- Left scale plate -->
  <path d="M 145 274 L 130 320 Q 128 330 140 330 L 180 330 Q 192 330 190 320 L 175 274" fill="white" opacity="0.8"/>
  
  <!-- Right scale plate -->
  <path d="M 337 274 L 322 320 Q 320 330 332 330 L 372 330 Q 384 330 382 320 L 367 274" fill="white" opacity="0.8"/>
  
  <!-- KG text -->
  <text x="256" y="420" text-anchor="middle" font-family="Arial, sans-serif" font-weight="900" font-size="80" fill="white" opacity="0.95" letter-spacing="8">KG</text>
  
  <!-- Small decorative dots -->
  <circle cx="160" cy="440" r="4" fill="white" opacity="0.3"/>
  <circle cx="352" cy="440" r="4" fill="white" opacity="0.3"/>
  <circle cx="256" cy="460" r="3" fill="white" opacity="0.2"/>
</svg>
